<svg width="40" height="40" viewBox="0 0 40 40" fill="none" xmlns="http://www.w3.org/2000/svg">
<circle cx="20" cy="20" r="20" fill="#D37B5F"/>
<g clip-path="url(#clip0_309_5)">
<path d="M27.35 18.04C27.0141 16.3377 26.0976 14.8049 24.7571 13.7032C23.4165 12.6016 21.7351 11.9996 20 12C17.11 12 14.6 13.64 13.35 16.04C11.8802 16.1988 10.521 16.8952 9.53349 17.9953C8.54597 19.0954 7.99983 20.5217 8 22C8 25.31 10.69 28 14 28H27C29.76 28 32 25.76 32 23C32 20.36 29.95 18.22 27.35 18.04ZM27 26H14C11.79 26 10 24.21 10 22C10 19.95 11.53 18.24 13.56 18.03L14.63 17.92L15.13 16.97C15.5899 16.0748 16.2879 15.3238 17.1471 14.7998C18.0064 14.2758 18.9936 13.999 20 14C22.62 14 24.88 15.86 25.39 18.43L25.69 19.93L27.22 20.04C27.9717 20.0906 28.6764 20.424 29.1922 20.9732C29.708 21.5224 29.9966 22.2466 30 23C30 24.65 28.65 26 27 26ZM21.45 18H18.55V21H16L20 25L24 21H21.45V18Z" fill="white"/>
</g>
<defs>
<clipPath id="clip0_309_5">
<rect width="24" height="24" fill="white" transform="translate(8 8)"/>
</clipPath>
</defs>
</svg>
