<svg width="40" height="40" viewBox="0 0 40 40" fill="none" xmlns="http://www.w3.org/2000/svg">
<circle cx="20" cy="20" r="20" fill="#D37B5F"/>
<path d="M12.5 26H9.5C9.22386 26 9 26.2239 9 26.5V30.5C9 30.7761 9.22386 31 9.5 31H12.5C12.7761 31 13 30.7761 13 30.5V26.5C13 26.2239 12.7761 26 12.5 26Z" fill="white"/>
<path d="M18.5 19H15.5C15.2239 19 15 19.2239 15 19.5V30.5C15 30.7761 15.2239 31 15.5 31H18.5C18.7761 31 19 30.7761 19 30.5V19.5C19 19.2239 18.7761 19 18.5 19Z" fill="white"/>
<path d="M24.5 26H21.5C21.2239 26 21 26.2239 21 26.5V30.5C21 30.7761 21.2239 31 21.5 31H24.5C24.7761 31 25 30.7761 25 30.5V26.5C25 26.2239 24.7761 26 24.5 26Z" fill="white"/>
<path d="M30.5 19H27.5C27.2239 19 27 19.2239 27 19.5V30.5C27 30.7761 27.2239 31 27.5 31H30.5C30.7761 31 31 30.7761 31 30.5V19.5C31 19.2239 30.7761 19 30.5 19Z" fill="white"/>
<path d="M29.293 9.29298L23 15.586L17.707 10.293C17.5195 10.1055 17.2652 10.0002 17 10.0002C16.7348 10.0002 16.4805 10.1055 16.293 10.293L9.293 17.293C9.19749 17.3852 9.1213 17.4956 9.0689 17.6176C9.01649 17.7396 8.9889 17.8708 8.98775 18.0036C8.98659 18.1364 9.01189 18.268 9.06218 18.3909C9.11246 18.5138 9.18671 18.6255 9.2806 18.7194C9.37449 18.8133 9.48615 18.8875 9.60904 18.9378C9.73194 18.9881 9.86362 19.0134 9.9964 19.0122C10.1292 19.0111 10.2604 18.9835 10.3824 18.9311C10.5044 18.8787 10.6148 18.8025 10.707 18.707L17 12.414L22.293 17.707C22.4805 17.8945 22.7348 17.9998 23 17.9998C23.2652 17.9998 23.5195 17.8945 23.707 17.707L30.707 10.707C30.8892 10.5184 30.99 10.2658 30.9877 10.0036C30.9854 9.74138 30.8802 9.49057 30.6948 9.30516C30.5094 9.11975 30.2586 9.01458 29.9964 9.01231C29.7342 9.01003 29.4816 9.11082 29.293 9.29298Z" fill="white"/>
</svg>
