<svg width="40" height="40" viewBox="0 0 40 40" fill="none" xmlns="http://www.w3.org/2000/svg">
<circle cx="20" cy="20" r="20" fill="#D37B5F"/>
<g clip-path="url(#clip0_309_6)">
<path d="M22 27L24.95 29.95C25.2717 30.2783 25.655 30.5401 26.0778 30.7203C26.5007 30.9005 26.955 30.9957 27.4146 31.0003C27.8743 31.005 28.3304 30.919 28.7568 30.7474C29.1833 30.5757 29.5717 30.3218 29.9 30L29.951 29.949C30.6137 29.2992 30.9911 28.4127 31.0003 27.4846C31.0095 26.5566 30.6497 25.6628 30 25L29.949 24.949L28 23" stroke="white" stroke-width="2" stroke-miterlimit="10" stroke-linecap="square"/>
<path d="M19.491 16.866L12.203 9.578L9.66101 12.12L16.779 19.238" stroke="white" stroke-width="2" stroke-miterlimit="10"/>
<path d="M30.678 12.922L27.6 15.987L24 12.411L27.08 9.34499C26.3695 9.03704 25.5879 8.93082 24.821 9.03799C23.3981 9.16021 22.0751 9.82009 21.1215 10.8833C20.1679 11.9465 19.6553 13.3332 19.688 14.761C19.682 15.3226 19.7881 15.8798 20 16.4L10.145 25.083C9.46838 25.6865 9.05917 26.5341 9.00741 27.4393C8.95565 28.3446 9.26558 29.2333 9.86902 29.91C9.89202 29.937 9.91602 29.962 9.94002 29.988C10.2385 30.2998 10.5956 30.5497 10.9907 30.7234C11.3858 30.8972 11.8113 30.9914 12.2428 31.0007C12.6743 31.01 13.1035 30.9342 13.5057 30.7776C13.9079 30.6209 14.2754 30.3866 14.587 30.088C14.687 29.9941 14.7808 29.8938 14.868 29.788L23.594 19.978C24.5266 20.2519 25.5075 20.3201 26.469 20.178C27.4822 19.9686 28.4191 19.4867 29.1787 18.7843C29.9383 18.082 30.492 17.1857 30.78 16.192C31.1069 15.1205 31.0711 13.971 30.678 12.922V12.922Z" stroke="white" stroke-width="2" stroke-miterlimit="10" stroke-linecap="square"/>
</g>
<defs>
<clipPath id="clip0_309_6">
<rect width="24" height="24" fill="white" transform="translate(8 8)"/>
</clipPath>
</defs>
</svg>
